<?xml version="1.0" standalone="no"?>
<!DOCTYPE svg PUBLIC "-//W3C//DTD SVG 20010904//EN"
 "http://www.w3.org/TR/2001/REC-SVG-20010904/DTD/svg10.dtd">
<svg version="1.0" xmlns="http://www.w3.org/2000/svg"
 width="1183.000000pt" height="1183.000000pt" viewBox="0 0 1183.000000 1183.000000"
 preserveAspectRatio="xMidYMid meet">

<g transform="translate(0.000000,1183.000000) scale(0.100000,-0.100000)"
fill="#000000" stroke="none">
<path d="M4890 11823 c-223 -19 -529 -73 -619 -107 -48 -19 -56 -26 -59 -51
-3 -20 3 -33 18 -45 21 -16 21 -18 6 -70 -19 -64 -20 -146 -3 -180 19 -38 82
-67 173 -81 46 -7 81 -16 79 -20 -3 -4 -38 -25 -78 -48 -39 -22 -94 -60 -121
-85 l-48 -46 3 -111 4 -110 -118 -49 c-125 -52 -436 -209 -602 -305 -253 -146
-616 -430 -661 -518 -11 -20 -12 -32 -4 -47 19 -35 57 -25 124 33 234 203 479
373 768 531 425 233 570 285 978 352 283 46 393 63 560 83 356 43 411 46 830
46 409 0 419 0 675 -33 354 -44 350 -43 670 -144 232 -73 340 -118 520 -218
160 -89 345 -174 528 -245 71 -27 103 -45 118 -66 19 -27 25 -29 85 -29 57 0
73 -5 136 -41 105 -59 249 -162 340 -242 114 -101 294 -326 382 -479 26 -44
26 -48 9 -48 -11 0 -34 11 -53 25 -37 28 -60 31 -78 13 -40 -40 16 -100 137
-147 44 -17 84 -31 89 -31 5 0 30 -32 57 -70 66 -98 179 -200 220 -200 17 0
37 6 44 13 10 10 16 7 31 -13 40 -53 100 -190 138 -315 63 -207 159 -676 216
-1055 14 -91 43 -264 66 -385 113 -609 130 -758 130 -1120 0 -219 -11 -335
-64 -706 -40 -279 -56 -454 -56 -609 0 -81 -4 -110 -14 -120 -12 -9 -14 -32
-9 -113 4 -79 2 -115 -11 -160 -14 -47 -14 -61 -4 -80 8 -14 11 -53 10 -107
-4 -122 13 -246 47 -348 58 -172 190 -356 295 -409 28 -14 46 -28 39 -30 -27
-9 -145 30 -259 87 -96 47 -137 74 -197 130 -89 83 -137 151 -137 194 0 17 11
55 25 85 24 50 24 56 10 77 -31 48 -66 27 -109 -66 -34 -73 -35 -150 -2 -204
l24 -38 -35 -97 c-35 -93 -36 -101 -41 -266 -4 -154 -2 -179 19 -255 90 -339
261 -521 448 -481 63 13 141 72 141 105 0 52 -48 60 -100 16 -27 -23 -44 -30
-78 -30 -94 0 -156 57 -232 215 -77 160 -93 232 -93 410 0 106 6 169 17 215 9
35 18 66 21 68 2 2 40 -25 84 -60 142 -114 328 -190 508 -210 90 -10 111 -9
165 6 76 21 108 40 108 66 0 27 -38 51 -69 43 l-26 -6 24 27 c14 14 37 63 52
109 24 70 26 85 15 102 -16 24 -42 31 -60 16 -7 -6 -24 -39 -36 -74 -31 -85
-45 -100 -90 -92 -52 10 -128 54 -164 96 -54 64 -135 210 -163 294 -23 71 -27
102 -33 290 -6 160 -5 223 5 265 8 32 16 154 19 295 7 263 18 378 72 745 31
216 36 276 41 506 9 412 -13 620 -132 1249 -20 105 -47 264 -61 355 -75 498
-182 997 -258 1195 -91 238 -220 393 -408 489 -36 18 -52 38 -106 131 -135
233 -310 457 -449 578 -175 152 -398 289 -499 308 -68 13 -533 222 -690 310
-187 106 -299 156 -469 212 -381 125 -456 142 -870 188 -252 28 -309 31 -575
30 -487 -1 -801 -29 -1320 -117 -113 -20 -241 -41 -285 -49 -45 -7 -109 -21
-144 -30 -35 -9 -65 -14 -67 -12 -3 2 -6 34 -7 70 -3 85 2 90 193 197 170 96
180 104 180 141 0 40 -22 48 -177 65 -168 17 -210 28 -218 55 -11 34 4 91 36
136 16 23 29 48 29 57 0 9 1 16 3 16 1 0 56 9 121 20 226 37 407 53 616 54
198 1 208 0 293 -27 202 -64 340 -141 536 -297 109 -86 178 -130 208 -130 26
0 56 33 51 57 -2 10 -30 38 -64 63 -33 25 -96 75 -140 111 -147 122 -248 185
-394 247 -193 81 -209 85 -460 87 -124 1 -245 1 -270 -2z"/>
<path d="M5960 10774 c-68 -13 -311 -109 -347 -137 -16 -12 -17 -49 -1 -65 18
-18 43 -15 96 12 26 13 88 38 137 56 86 32 96 33 235 33 109 -1 165 -6 225
-20 92 -23 149 -20 169 9 34 48 -13 84 -132 99 -87 11 -344 20 -382 13z"/>
<path d="M7601 10509 c-13 -37 2 -54 76 -84 100 -40 196 -107 304 -215 70 -68
103 -110 119 -147 24 -57 49 -70 82 -43 21 17 21 20 8 60 -20 61 -56 111 -141
198 -135 137 -294 238 -393 249 -41 5 -47 3 -55 -18z"/>
<path d="M3478 9997 c-119 -64 -159 -97 -412 -340 -344 -331 -451 -466 -596
-752 -222 -437 -390 -893 -476 -1290 -64 -300 -89 -551 -81 -830 7 -232 11
-253 44 -266 l25 -9 -22 -38 c-41 -69 -148 -217 -201 -277 -62 -71 -115 -114
-218 -175 -66 -40 -76 -50 -76 -74 0 -51 27 -56 102 -16 160 84 272 190 404
382 95 139 119 194 119 275 0 40 -5 74 -12 81 -18 18 -45 15 -66 -8 l-19 -21
-7 32 c-11 57 -6 287 9 437 60 568 215 1070 530 1716 107 218 214 371 386 547
171 174 501 475 562 511 34 20 81 48 105 62 34 21 42 31 42 55 0 20 -7 34 -19
41 -24 12 -9 18 -123 -43z"/>
<path d="M2532 9560 c-9 -17 -42 -65 -73 -106 -31 -42 -104 -162 -163 -267
-59 -106 -127 -228 -153 -272 -96 -169 -284 -547 -351 -710 -107 -258 -150
-422 -192 -735 -46 -336 -109 -532 -233 -715 -69 -102 -209 -277 -267 -335
-90 -89 -132 -114 -205 -118 -68 -5 -84 2 -163 70 -18 15 -37 28 -42 28 -16 0
-50 -39 -50 -56 0 -9 28 -43 61 -75 58 -56 61 -60 45 -77 -22 -26 -20 -46 10
-92 65 -97 248 -178 380 -167 68 5 94 18 94 48 0 33 -28 49 -89 49 -85 0 -210
47 -280 105 -17 15 -31 31 -31 36 0 5 26 9 57 9 140 0 267 98 467 359 242 313
300 465 371 961 28 199 33 221 76 378 49 177 140 392 307 722 63 124 135 261
161 305 27 44 87 153 135 242 47 90 116 211 151 269 36 59 65 117 65 129 0 52
-61 62 -88 15z"/>
<path d="M4898 9533 c-59 -9 -141 -163 -227 -423 -126 -386 -191 -753 -191
-1085 0 -94 5 -208 10 -253 8 -62 8 -93 -2 -125 -7 -24 -12 -99 -12 -177 0
-109 5 -161 28 -270 39 -190 89 -397 131 -547 58 -202 135 -496 135 -512 0
-12 -3 -12 -12 -3 -7 7 -28 12 -48 12 -22 0 -69 16 -118 40 -45 21 -128 54
-184 71 -57 18 -105 34 -107 35 -2 2 13 29 32 61 61 101 123 235 163 348 36
102 39 118 38 215 -1 163 -39 250 -95 219 -18 -9 -20 -17 -15 -57 15 -112 18
-215 7 -260 -29 -117 -107 -290 -194 -429 -59 -94 -50 -91 -205 -73 -45 5 -89
7 -97 4 -18 -7 -27 -36 -19 -59 7 -18 83 -55 115 -55 23 0 25 -13 4 -30 -18
-15 -19 -42 -3 -58 26 -26 96 -5 150 46 24 22 33 24 76 18 61 -8 194 -53 286
-97 104 -49 207 -53 221 -8 12 36 22 9 44 -116 29 -167 41 -275 41 -378 l0
-89 -37 6 c-21 3 -63 8 -93 12 -138 15 -327 72 -685 204 -210 78 -349 111
-468 111 -104 0 -137 -12 -137 -51 0 -33 33 -47 120 -54 90 -8 219 -33 233
-46 5 -4 0 -25 -11 -46 -27 -54 -28 -64 -52 -289 -22 -213 -20 -334 7 -361 18
-17 57 -18 70 -1 6 6 13 84 16 172 9 218 30 378 59 442 l23 51 235 -85 c196
-71 398 -130 543 -158 21 -4 26 -9 19 -18 -5 -7 -12 -52 -15 -102 -4 -49 -15
-160 -26 -245 -27 -210 -31 -338 -11 -350 39 -25 80 2 80 53 0 18 14 133 30
257 17 123 30 238 30 255 0 40 66 110 90 95 40 -25 65 1 74 76 5 46 15 68 46
108 63 83 147 223 204 341 109 225 127 345 51 345 -30 0 -33 -6 -56 -98 -26
-105 -217 -487 -235 -469 -2 2 -9 53 -15 113 -19 204 -79 476 -195 886 -132
469 -199 843 -163 909 21 39 18 147 -5 176 -17 23 -18 39 -13 256 7 286 35
484 112 788 42 164 138 447 189 552 40 84 52 99 84 115 40 18 53 51 32 78 -12
14 -28 15 -82 7z"/>
<path d="M7909 9317 c-8 -19 0 -44 50 -152 213 -465 292 -759 312 -1160 14
-305 2 -390 -133 -938 -57 -234 -68 -290 -58 -302 15 -19 44 -19 59 -2 13 16
157 583 196 772 47 226 45 579 -5 850 -49 267 -181 643 -304 868 -43 79 -50
87 -77 87 -21 0 -32 -7 -40 -23z"/>
<path d="M9262 9253 c-6 -10 -9 -41 -7 -69 2 -42 25 -97 135 -320 234 -475
324 -685 429 -1004 74 -226 103 -335 135 -510 50 -274 60 -428 61 -915 0 -488
-7 -582 -52 -710 -34 -97 -37 -113 -23 -130 7 -8 23 -15 37 -15 20 0 29 12 58
73 63 135 85 313 85 697 0 784 -73 1210 -320 1860 -84 221 -300 697 -400 883
-23 43 -48 99 -54 125 -11 42 -15 47 -43 50 -23 2 -35 -2 -41 -15z"/>
<path d="M7236 7504 c-23 -22 -20 -34 18 -98 72 -120 103 -423 76 -763 -12
-158 -39 -286 -96 -464 -131 -408 -266 -644 -446 -776 -59 -43 -73 -65 -58
-93 17 -31 51 -24 115 23 98 71 206 199 287 338 72 123 198 457 247 654 46
184 53 273 48 570 -5 311 -17 405 -67 511 -32 66 -71 114 -94 114 -8 0 -22 -7
-30 -16z"/>
<path d="M8012 7041 c-7 -4 -19 -30 -26 -57 -25 -90 -272 -623 -391 -844 -40
-74 -114 -205 -164 -290 -75 -127 -96 -156 -118 -160 -14 -3 -32 -14 -39 -25
-11 -17 -11 -25 1 -49 12 -23 13 -37 4 -69 -12 -46 2 -106 30 -131 20 -17 160
-37 182 -25 45 23 27 75 -29 84 -85 14 -92 17 -92 33 1 46 5 46 236 18 121
-15 263 -36 318 -47 94 -19 99 -19 118 -2 11 10 18 27 16 42 -6 50 -79 70
-422 116 -105 14 -191 27 -193 29 -2 1 46 86 105 187 182 308 279 504 443 884
86 202 104 264 82 294 -15 22 -39 27 -61 12z"/>
<path d="M3852 6896 c-132 -72 -321 -247 -444 -412 -215 -290 -308 -517 -308
-753 0 -123 16 -186 71 -275 57 -94 72 -110 102 -102 40 10 43 40 8 94 -16 26
-42 74 -58 107 -25 54 -28 70 -27 165 1 207 91 424 286 690 93 126 314 344
396 390 111 62 132 86 100 118 -20 20 -60 13 -126 -22z"/>
<path d="M8230 6775 c-71 -96 -82 -138 -88 -325 -6 -206 16 -369 87 -650 85
-339 177 -609 303 -890 38 -85 72 -161 75 -167 3 -8 -3 -13 -14 -13 -35 0 -43
-21 -43 -109 0 -172 -97 -495 -254 -847 -24 -56 -74 -189 -110 -297 -35 -108
-77 -220 -91 -251 -49 -103 -204 -249 -421 -394 -88 -59 -728 -384 -889 -452
-267 -111 -786 -264 -1005 -295 -118 -16 -618 -21 -683 -6 -49 12 -83 -12 -74
-51 5 -20 19 -31 54 -44 41 -15 91 -18 333 -22 287 -4 370 1 528 35 40 8 76
13 79 10 3 -3 -10 -43 -27 -89 -43 -109 -80 -227 -80 -255 0 -12 9 -28 19 -35
13 -9 19 -25 19 -45 -2 -66 117 -168 294 -253 92 -45 117 -49 143 -20 34 38
14 65 -88 116 -105 53 -195 115 -249 171 l-36 38 27 85 c25 76 30 85 54 88 74
9 264 -79 393 -182 107 -84 193 -188 254 -306 77 -151 93 -224 92 -415 0 -184
-4 -199 -90 -375 -50 -102 -66 -125 -146 -206 -100 -101 -188 -163 -358 -255
-62 -34 -115 -63 -117 -65 -2 -2 50 -4 116 -4 l121 0 105 69 c116 76 226 175
294 264 46 59 136 238 169 337 26 77 26 358 0 475 -22 98 -106 278 -169 360
-67 88 -181 196 -272 257 -98 66 -257 137 -325 145 -55 6 -55 6 -39 52 8 24 9
39 1 56 -11 23 -9 25 31 35 49 12 394 115 419 125 12 5 18 -1 23 -22 11 -49
58 -104 130 -154 74 -50 223 -127 290 -149 34 -11 37 -14 20 -21 -11 -4 -49
-8 -86 -8 -69 -1 -89 -11 -89 -47 0 -42 17 -45 285 -53 210 -7 259 -11 272
-23 10 -10 20 -55 28 -129 13 -110 23 -150 117 -444 55 -172 75 -194 248 -271
152 -67 207 -101 215 -131 4 -16 17 -25 44 -33 25 -7 48 -23 66 -46 25 -32 31
-36 62 -31 30 5 48 -2 121 -48 103 -63 134 -93 163 -160 26 -58 28 -158 5
-203 -21 -41 -111 -120 -187 -164 l-64 -38 107 0 106 0 61 60 c75 76 101 138
101 245 0 41 3 75 8 75 4 0 27 -12 52 -26 25 -14 106 -54 180 -89 262 -122
336 -159 422 -212 l86 -53 89 0 88 0 -30 26 c-74 62 -223 152 -370 224 -380
184 -531 253 -558 252 -18 0 -32 7 -43 22 -24 37 -120 108 -232 170 -57 32
-138 83 -180 113 -68 49 -137 85 -340 180 -64 30 -82 57 -118 173 -14 47 -41
132 -59 190 -32 98 -47 175 -58 293 -5 57 -9 57 155 23 100 -21 127 -23 192
-15 68 9 80 7 115 -11 22 -11 51 -20 64 -20 53 0 64 57 18 91 -51 37 -56 65
-55 279 0 205 12 296 56 425 67 194 198 405 340 544 87 85 102 113 76 139 -21
21 -50 13 -107 -30 -83 -62 -125 -108 -213 -231 -87 -121 -125 -192 -182 -334
-67 -167 -79 -247 -81 -513 l-2 -235 -51 -3 c-29 -2 -107 8 -174 22 -68 14
-150 28 -183 32 -77 8 -455 134 -560 187 -136 68 -229 132 -253 176 -12 22
-19 42 -15 44 5 2 51 21 103 42 111 44 782 375 885 436 170 102 394 287 467
387 55 74 85 146 152 356 32 98 79 228 106 290 149 342 229 595 251 792 6 54
12 100 13 102 2 1 26 -49 55 -110 29 -62 105 -205 169 -318 110 -191 120 -205
146 -205 34 0 51 23 43 56 -4 14 -45 90 -93 169 -104 176 -144 254 -275 542
-184 404 -281 673 -372 1034 -71 279 -89 385 -94 586 -6 206 0 242 58 340 41
71 42 97 3 112 -27 11 -32 7 -74 -49z"/>
<path d="M4171 6767 c-18 -22 -37 -99 -60 -236 -28 -163 -27 -179 4 -193 43
-19 59 10 84 147 11 66 29 151 38 188 13 50 14 73 7 85 -14 22 -57 27 -73 9z"/>
<path d="M2746 6291 c-33 -34 -38 -46 -43 -98 -4 -41 1 -94 16 -164 24 -119
51 -285 51 -313 0 -15 -9 -10 -46 23 -65 61 -115 81 -202 81 -88 0 -151 -28
-205 -91 -71 -83 -93 -160 -104 -367 -6 -114 -7 -121 -23 -107 -27 24 -68 106
-86 171 -12 45 -18 131 -24 369 -7 275 -10 316 -27 359 -22 53 -43 71 -73 61
-26 -8 -34 -43 -19 -80 9 -20 15 -133 20 -345 7 -339 12 -376 67 -490 25 -50
120 -159 168 -191 13 -9 28 -43 43 -94 32 -111 123 -297 174 -352 88 -95 195
-120 336 -77 l24 7 -5 -198 c-3 -109 -2 -227 2 -264 12 -91 82 -226 225 -431
240 -346 434 -552 720 -768 206 -155 363 -288 353 -297 -3 -3 -43 -16 -89 -30
-93 -28 -300 -101 -483 -171 -65 -25 -148 -52 -185 -60 -36 -9 -95 -22 -131
-30 -170 -38 -294 -151 -338 -309 -61 -220 -75 -245 -162 -302 -118 -78 -194
-104 -500 -168 -172 -36 -337 -85 -366 -108 -13 -10 -24 -29 -24 -42 0 -34
-38 -37 -68 -6 l-24 24 -171 -6 c-455 -15 -650 -108 -775 -367 -115 -239 -147
-376 -237 -1022 l-5 -38 60 0 c57 0 60 1 60 24 0 48 62 463 86 577 53 252 136
459 219 548 108 115 302 167 646 173 l147 3 4 -90 c8 -135 58 -244 195 -422
131 -169 263 -261 498 -347 166 -61 190 -79 220 -162 34 -96 72 -170 121 -237
l49 -67 62 0 c35 0 63 3 63 6 0 3 -34 55 -75 115 -47 68 -85 136 -101 181 -56
156 -100 197 -289 262 -122 43 -188 73 -255 119 -143 98 -321 325 -368 472
-25 78 -35 205 -16 205 8 0 62 14 121 30 105 30 204 53 388 90 168 34 323 97
438 181 68 49 115 146 162 332 21 81 54 133 115 181 55 43 108 62 219 82 47 8
145 37 218 65 204 76 481 174 545 193 31 9 79 16 106 16 47 0 57 -5 149 -74
54 -40 124 -90 156 -110 38 -24 55 -41 50 -49 -4 -7 -8 -79 -9 -162 0 -135 -3
-160 -30 -248 l-29 -99 -55 -20 c-30 -11 -120 -33 -200 -49 -169 -33 -230 -48
-247 -62 -20 -15 -16 -64 7 -80 17 -12 44 -9 212 25 192 39 293 73 304 103 3
8 14 15 24 15 28 0 46 30 79 132 41 128 55 225 48 325 -3 46 -3 83 0 83 15 0
213 -116 266 -156 33 -24 70 -44 82 -44 26 0 55 33 55 62 0 38 -110 116 -340
238 -209 111 -308 184 -585 425 -44 39 -134 111 -199 160 -356 270 -520 431
-738 725 -111 150 -193 277 -237 370 l-36 75 0 745 c0 820 1 808 -70 1155 -30
144 -31 175 -6 206 35 45 42 68 31 89 -18 33 -61 26 -104 -19z m-138 -585 c35
-18 66 -53 82 -94 14 -36 51 -52 75 -32 12 10 16 9 22 -6 4 -11 7 -217 8 -459
l0 -440 -25 -2 c-14 0 -49 -4 -77 -8 -70 -10 -129 13 -179 67 -54 60 -130 228
-165 365 -26 102 -30 136 -30 248 0 204 23 279 105 344 33 27 47 31 98 31 32
0 71 -6 86 -14z"/>
<path d="M5264 5963 c-14 -14 -16 -31 -11 -112 6 -117 38 -223 112 -373 118
-236 262 -414 419 -517 75 -49 266 -131 304 -131 27 0 45 25 38 54 -4 18 -23
30 -88 56 -125 49 -168 73 -250 139 -84 66 -141 132 -222 254 -133 204 -226
437 -226 572 0 66 -38 95 -76 58z"/>
<path d="M1188 5830 c-116 -35 -214 -182 -303 -455 -78 -240 -106 -408 -106
-650 0 -228 5 -261 45 -344 62 -130 180 -223 298 -237 62 -7 85 8 74 51 -5 18
-16 27 -49 35 -113 28 -167 74 -228 190 -22 42 -24 58 -27 230 -3 135 1 217
13 305 47 331 184 691 289 761 14 8 62 21 108 28 76 10 83 13 92 38 16 46 -4
58 -98 57 -44 0 -93 -4 -108 -9z"/>
<path d="M9831 5460 c-130 -134 -183 -330 -185 -675 -1 -209 7 -251 66 -349
16 -26 27 -50 25 -53 -10 -10 -86 19 -125 47 -58 42 -102 105 -177 256 -102
206 -115 272 -89 481 6 46 4 52 -15 63 -41 21 -65 -7 -86 -102 -10 -45 -33
-110 -51 -143 -64 -118 -114 -338 -134 -585 -15 -182 -8 -282 25 -331 34 -52
20 -95 -53 -169 -66 -65 -236 -155 -314 -166 -70 -9 -138 3 -138 25 0 27 -35
54 -59 46 -25 -8 -51 -54 -51 -89 0 -34 50 -73 106 -82 79 -12 194 1 261 28
171 70 293 164 341 265 15 32 36 70 46 85 13 20 15 31 7 46 -8 15 -6 51 6 131
16 107 16 111 -2 131 -14 15 -28 20 -49 17 l-29 -4 7 98 c9 146 64 419 84 419
4 0 13 -19 20 -42 17 -54 110 -241 157 -314 79 -123 181 -190 312 -205 63 -7
82 -6 101 7 21 14 22 20 16 62 -4 30 -19 64 -40 93 -62 86 -68 114 -66 307 3
341 44 512 152 637 45 53 46 53 24 83 -22 32 -49 27 -93 -18z"/>
<path d="M6172 5278 c-18 -18 -14 -44 12 -75 54 -65 69 -119 74 -259 3 -118 2
-136 -18 -181 -12 -28 -35 -63 -51 -79 -33 -32 -36 -46 -13 -68 37 -38 98 2
145 96 25 49 31 75 36 156 10 168 -24 302 -97 386 -33 37 -66 46 -88 24z"/>
<path d="M1594 5077 c-56 -29 -84 -67 -126 -162 -78 -178 -111 -392 -112 -730
-1 -217 1 -248 21 -328 58 -225 156 -371 289 -427 72 -32 184 -12 184 31 0 33
-22 49 -67 49 -119 0 -220 125 -284 350 -22 80 -24 101 -23 330 0 261 15 409
56 565 28 109 82 221 116 242 53 32 64 60 36 87 -21 21 -41 20 -90 -7z"/>
<path d="M6806 5017 c-12 -9 -17 -23 -14 -42 2 -26 12 -35 64 -60 55 -27 62
-34 67 -65 4 -19 9 -51 12 -70 5 -26 -6 -81 -38 -200 -76 -281 -79 -302 -36
-315 51 -17 64 3 103 160 14 55 32 123 41 150 50 154 55 216 24 271 l-20 37
238 -6 c255 -8 472 -29 483 -47 4 -7 22 -15 41 -19 39 -8 52 -41 43 -111 -6
-47 -81 -388 -115 -524 -23 -92 -17 -126 25 -126 36 0 53 22 75 98 42 140 113
481 119 567 l7 90 149 3 c156 3 176 8 176 47 0 44 -21 49 -223 56 -138 4 -206
11 -242 23 -80 27 -280 46 -581 55 -220 7 -287 12 -318 25 -47 19 -57 20 -80
3z"/>
<path d="M1951 4933 c-88 -52 -121 -183 -121 -485 0 -163 4 -220 20 -290 71
-321 230 -592 461 -784 144 -120 216 -193 248 -253 39 -74 61 -159 61 -237 0
-58 -2 -64 -37 -99 -27 -27 -77 -54 -177 -96 -76 -32 -154 -68 -172 -80 -42
-25 -53 -62 -29 -89 16 -17 31 -20 110 -20 228 0 583 117 702 233 42 40 49 63
27 88 -24 27 -41 24 -85 -16 -21 -19 -62 -46 -91 -61 -59 -30 -159 -66 -165
-60 -3 2 1 14 7 27 21 39 25 217 6 300 -33 149 -99 250 -241 369 -277 230
-419 444 -503 754 -26 96 -27 112 -27 336 0 269 10 322 70 389 36 40 44 68 23
89 -17 17 -37 14 -87 -15z"/>
<path d="M4106 4780 c-41 -8 -56 -22 -56 -56 0 -37 23 -47 97 -39 46 4 98 1
158 -9 50 -9 95 -16 102 -16 18 0 43 29 43 50 0 33 -27 47 -117 64 -92 17
-162 19 -227 6z"/>
<path d="M7108 4110 c-11 -6 -18 -23 -18 -40 0 -18 7 -33 18 -38 9 -5 75 -12
146 -14 116 -5 131 -3 147 13 24 24 24 41 -2 65 -17 15 -40 19 -147 21 -79 2
-134 0 -144 -7z"/>
<path d="M9717 3738 c-29 -23 -164 -235 -225 -355 -119 -233 -233 -562 -287
-828 -41 -200 -36 -529 9 -685 60 -207 161 -358 265 -395 65 -22 153 -20 176
5 15 16 16 25 7 44 -9 21 -19 24 -78 28 -66 4 -68 5 -114 55 -135 147 -199
430 -171 751 32 356 202 845 425 1221 69 117 72 127 50 152 -20 22 -34 24 -57
7z"/>
<path d="M5350 3370 c-25 -25 -26 -62 -2 -82 9 -8 69 -22 132 -32 129 -20 217
-40 273 -61 50 -20 63 -19 87 5 68 68 -26 121 -293 165 -182 30 -172 30 -197
5z"/>
<path d="M8621 3073 c-131 -148 -191 -405 -178 -763 11 -296 120 -692 226
-824 64 -80 184 -136 291 -136 53 0 80 15 80 44 0 33 -17 43 -87 49 -71 6
-150 44 -190 92 -57 67 -135 288 -179 509 -48 239 -43 563 11 765 24 90 86
205 130 241 18 15 20 51 3 68 -25 25 -56 12 -107 -45z"/>
<path d="M3102 2858 c-7 -7 -12 -25 -12 -40 0 -24 8 -32 61 -59 61 -30 379
-126 496 -149 66 -13 124 -8 142 13 17 22 25 95 11 112 -18 21 -46 19 -69 -6
-16 -18 -26 -20 -63 -14 -80 14 -401 105 -456 130 -60 28 -92 31 -110 13z"/>
<path d="M10168 2725 c-14 -8 -71 -31 -125 -50 -54 -20 -104 -42 -112 -50 -18
-18 -7 -62 18 -70 25 -8 180 37 251 74 45 22 56 33 58 56 6 49 -37 68 -90 40z"/>
<path d="M4124 2205 c-81 -18 -248 -85 -364 -147 -311 -166 -448 -310 -465
-492 -12 -128 7 -226 96 -490 153 -450 304 -764 481 -998 l59 -78 86 0 85 0
-65 69 c-180 191 -363 546 -530 1026 -94 269 -100 295 -100 410 -1 125 11 154
100 246 101 105 316 234 523 314 87 34 107 38 244 46 185 11 219 28 186 90
-10 17 -22 19 -143 18 -73 -1 -159 -7 -193 -14z"/>
<path d="M3902 1344 c-20 -14 -22 -24 -22 -107 0 -75 4 -100 21 -132 74 -138
409 -405 674 -538 227 -113 454 -164 770 -173 l200 -6 138 36 c272 70 422 133
665 279 188 113 222 155 222 277 0 60 -11 80 -46 80 -29 0 -36 -12 -45 -80 -7
-48 -13 -60 -50 -91 -43 -38 -213 -137 -357 -208 -93 -47 -347 -130 -473 -156
-69 -15 -115 -17 -259 -12 -409 14 -681 107 -1016 348 -122 88 -234 183 -286
244 -40 47 -47 63 -53 112 -10 88 -19 115 -41 129 -17 12 -23 11 -42 -2z"/>
<path d="M1722 358 c-18 -18 -15 -53 17 -164 16 -55 32 -122 36 -147 l7 -47
55 0 54 0 -7 48 c-7 48 -38 163 -71 262 -16 49 -21 55 -48 58 -17 2 -36 -3
-43 -10z"/>
<path d="M3302 68 c-7 -7 -12 -25 -12 -40 0 -27 2 -28 50 -28 41 0 50 3 50 18
0 47 -58 80 -88 50z"/>
</g>
</svg>
